<svg width="1920" height="1408" viewBox="0 0 1920 1408" fill="none" xmlns="http://www.w3.org/2000/svg">
<g clip-path="url(#clip0_67_234)">
<rect width="1920" height="1408" fill="white"/>
<path d="M447.474 164.411C176.568 184.14 13.1165 124.952 0 109.27V0H1937.71C1944.94 99.321 1944.97 286.935 1887.26 242.822C1815.12 187.681 1605.76 209.94 1456.94 278.234C1308.12 346.528 1067.98 321.739 991.808 242.822C915.631 163.905 718.38 144.682 447.474 164.411Z" fill="#A7E6FF" stroke="black"/>
<path d="M218.5 922.686C133.3 905.886 27.3333 974.686 -15 1011.19V1433.69C-15 1433.69 1727.5 1447.19 1905 1433.69C2082.5 1420.19 1969.6 1107.61 1916.5 1000.69C1895.24 957.881 1577.83 981.686 1553 1011.19C1546 990.686 1497.2 944.286 1358 922.686C1218.8 901.086 1089.33 979.686 1042 1021.69C1017.67 996.686 931.8 941.886 783 922.686C634.2 903.486 493.333 1004.69 441.5 1057.69C402.667 1019.69 303.7 939.486 218.5 922.686Z" fill="#3ABEF9" stroke="#F5F5F5" stroke-width="3"/>
</g>
<defs>
<clipPath id="clip0_67_234">
<rect width="1920" height="1408" fill="white"/>
</clipPath>
</defs>
</svg>
